<svg width="76" height="76" viewBox="0 0 76 76" fill="none" xmlns="http://www.w3.org/2000/svg">
<g clip-path="url(#clip0_402_2)">
<path d="M38 76C58.9868 76 76 58.9868 76 38C76 17.0132 58.9868 0 38 0C17.0132 0 0 17.0132 0 38C0 58.9868 17.0132 76 38 76Z" fill="#18C8A0"/>
<path d="M60.9852 31.5471L56.9762 27.5381C56.3739 26.9327 55.6572 26.453 54.8679 26.1268C54.0786 25.8006 53.2323 25.6345 52.3783 25.6381H51.7608V24.9969C51.7608 23.8735 51.4947 22.8047 50.9342 21.8429C50.6457 21.285 50.2661 20.7793 49.8109 20.3466L45.8019 16.3352C45.1992 15.7295 44.4822 15.2497 43.6924 14.9235C42.9027 14.5973 42.0559 14.4313 41.2015 14.4352H22.7288C20.9903 14.4352 19.361 15.105 18.1308 16.3352L14.1218 20.3442C13.5146 20.9399 13.0335 21.6517 12.7071 22.4371C12.3807 23.2225 12.2157 24.0656 12.2218 24.9161L12.1149 42.2417C12.0911 43.9779 12.7846 45.6617 14.0149 46.892L18.0239 50.9034C18.6264 51.5085 19.3431 51.9878 20.1325 52.3136C20.9218 52.6393 21.768 52.805 22.6219 52.801H23.3439V53.4422C23.3439 54.5656 23.6123 55.6344 24.1728 56.5962C24.4673 57.1591 24.8401 57.665 25.2961 58.0925L29.3051 62.1062C29.9082 62.7104 30.6251 63.1889 31.4144 63.5143C32.2036 63.8396 33.0495 64.0052 33.9031 64.0015H52.4044C54.1429 64.0015 55.7721 63.3341 57.0024 62.1039L61.0137 58.0949C61.6182 57.4919 62.0971 56.7751 62.4229 55.9858C62.7486 55.1966 62.9146 54.3507 62.9114 53.4969V36.119C62.9068 35.2679 62.7346 34.4261 62.4045 33.6416C62.0744 32.8571 61.593 32.1454 60.9876 31.5471H60.9852ZM22.6219 46.9181C22.4522 46.9183 22.2893 46.8518 22.1683 46.7329L20.1638 44.726L18.1569 42.7215C18.0708 42.6203 18.0069 42.5022 17.9693 42.3747V24.9446C17.9693 24.7546 18.05 24.5955 18.1593 24.4886L22.1683 20.4796C22.2205 20.425 22.2751 20.3989 22.3274 20.3727C22.4264 20.3211 22.5363 20.2934 22.648 20.292H41.1493C41.2561 20.292 41.3369 20.3181 41.4438 20.3727C41.5245 20.3989 41.5768 20.4535 41.6314 20.5057L45.6404 24.5171C45.699 24.5673 45.7446 24.6308 45.7734 24.7024C45.8019 24.7309 45.8019 24.757 45.8019 24.7831C45.8019 24.8092 45.8256 24.8377 45.8256 24.8639C45.8256 24.89 45.8541 24.9707 45.8541 25.023V25.878C45.8541 26.2532 45.5596 26.5192 45.2129 26.5192H42.0066C41.8361 26.5201 41.6722 26.4535 41.5506 26.334L39.7314 24.5171H24.0659L23.3985 25.1821L22.4889 26.0941V41.1445L24.0659 42.7215H39.7053L41.5245 40.8785L41.5483 40.85C41.6029 40.8239 41.6575 40.7692 41.7098 40.7431C41.7905 40.6909 41.8998 40.6909 41.9781 40.6909H45.1844C45.3981 40.6909 45.5881 40.7977 45.7211 40.9569C45.8043 41.0646 45.8509 41.1961 45.8541 41.3321V42.2417C45.8537 42.4118 45.7863 42.5747 45.6665 42.6954L43.662 44.6999L41.6575 46.7044C41.6314 46.7329 41.5768 46.759 41.5506 46.7851C41.5506 46.7851 41.5245 46.8112 41.496 46.8112C41.4699 46.8397 41.4438 46.8397 41.4153 46.8397C41.3915 46.8397 41.3915 46.8397 41.363 46.8659C41.3369 46.8659 41.3084 46.892 41.2823 46.892H22.6219V46.9181V46.9181ZM57.057 53.4422C57.056 53.6126 56.9877 53.7756 56.867 53.8959L52.858 57.9072C52.8114 57.9516 52.7576 57.9878 52.6989 58.0141C52.5998 58.0658 52.49 58.0935 52.3783 58.0949H33.877C33.7736 58.0933 33.6722 58.0656 33.5825 58.0141C33.511 57.9853 33.4474 57.9397 33.3973 57.8811L29.3859 53.8697C29.3336 53.8175 29.279 53.7629 29.2529 53.6821C29.2244 53.6584 29.2244 53.6299 29.2244 53.6037C29.2244 53.5752 29.2006 53.5491 29.2006 53.523C29.2006 53.4969 29.1721 53.4161 29.1721 53.3615V52.5065C29.1721 52.1336 29.4666 51.8652 29.8134 51.8652H33.0196C33.2096 51.8652 33.3688 51.946 33.4756 52.0529L35.2949 53.8697H50.9342L51.6016 53.2024L52.5113 52.2927V37.2424L50.9342 35.663H35.321L33.5041 37.5084L33.4756 37.5345C33.4234 37.563 33.3688 37.6152 33.3165 37.6414C33.2358 37.696 33.1289 37.696 33.0481 37.696H29.8419C29.7381 37.694 29.6361 37.6688 29.5432 37.6224C29.4504 37.576 29.369 37.5094 29.3051 37.4276C29.2224 37.3205 29.1759 37.19 29.1721 37.0547V36.1451C29.1721 36.0609 29.1886 35.9775 29.2208 35.8996C29.253 35.8218 29.3002 35.7511 29.3598 35.6915L31.3643 33.687L33.3688 31.6801C33.3973 31.654 33.4495 31.6279 33.4756 31.5994C33.4756 31.5994 33.5041 31.5756 33.5303 31.5756C33.5564 31.5471 33.5825 31.5471 33.611 31.5471C33.6348 31.5471 33.6348 31.5471 33.6633 31.521C33.6894 31.521 33.7179 31.4925 33.744 31.4925H52.3783C52.5635 31.4925 52.725 31.5732 52.8319 31.6825L54.8364 33.687L56.8432 35.6915C56.867 35.7176 56.8955 35.7437 56.9216 35.7984C56.969 35.8726 57.005 35.9534 57.0285 36.0382V36.1712C57.057 36.119 57.057 53.4422 57.057 53.4422Z" fill="white"/>
</g>
<defs>
<clipPath id="clip0_402_2">
<rect width="76" height="76" fill="white"/>
</clipPath>
</defs>
</svg>
