<svg width="123" height="42" viewBox="0 0 123 42" fill="none" xmlns="http://www.w3.org/2000/svg">
<g clip-path="url(#clip0_502_5)">
<path d="M18.5 39C28.7173 39 37 30.7173 37 20.5C37 10.2827 28.7173 2 18.5 2C8.28273 2 0 10.2827 0 20.5C0 30.7173 8.28273 39 18.5 39Z" fill="#18C8A0"/>
<path d="M29.6902 17.3585L27.7384 15.4067C27.4452 15.112 27.0963 14.8784 26.712 14.7196C26.3277 14.5608 25.9157 14.48 25.4999 14.4817H25.1993V14.1695C25.1993 13.6226 25.0698 13.1023 24.7969 12.634C24.6565 12.3624 24.4716 12.1162 24.25 11.9056L22.2983 9.95268C22.0049 9.6578 21.6558 9.42417 21.2713 9.26537C20.8868 9.10658 20.4746 9.02578 20.0586 9.02768H11.0653C10.2189 9.02768 9.42574 9.35374 8.8268 9.95268L6.87505 11.9044C6.57948 12.1944 6.34527 12.5409 6.18636 12.9233C6.02745 13.3057 5.94708 13.7161 5.95005 14.1302L5.89802 22.5651C5.88646 23.4103 6.22409 24.2301 6.82302 24.829L8.77477 26.7819C9.0681 27.0765 9.41704 27.3099 9.80132 27.4684C10.1856 27.627 10.5976 27.7077 11.0133 27.7057H11.3648V28.0179C11.3648 28.5648 11.4954 29.0851 11.7683 29.5534C11.9117 29.8275 12.0932 30.0737 12.3152 30.2819L14.267 32.2359C14.5606 32.53 14.9096 32.763 15.2938 32.9214C15.6781 33.0798 16.0899 33.1604 16.5055 33.1586H25.5126C26.359 33.1586 27.1522 32.8337 27.7511 32.2348L29.7041 30.283C29.9983 29.9895 30.2315 29.6405 30.3901 29.2563C30.5486 28.872 30.6295 28.4602 30.6279 28.0445V19.5842C30.6257 19.1699 30.5418 18.7601 30.3811 18.3781C30.2204 17.9962 29.986 17.6497 29.6913 17.3585H29.6902ZM11.0133 24.8417C10.9307 24.8418 10.8513 24.8094 10.7924 24.7515L9.81655 23.7745L8.83952 22.7986C8.79761 22.7494 8.76649 22.6918 8.74818 22.6298V14.1441C8.74818 14.0516 8.78749 13.9741 8.84068 13.9221L10.7924 11.9703C10.8179 11.9437 10.8445 11.931 10.8699 11.9183C10.9181 11.8931 10.9716 11.8797 11.026 11.879H20.0332C20.0852 11.879 20.1245 11.8917 20.1766 11.9183C20.2159 11.931 20.2413 11.9576 20.2679 11.9831L22.2196 13.936C22.2482 13.9604 22.2704 13.9913 22.2844 14.0261C22.2983 14.04 22.2983 14.0527 22.2983 14.0655C22.2983 14.0782 22.3098 14.0921 22.3098 14.1048C22.3098 14.1175 22.3237 14.1568 22.3237 14.1822V14.5985C22.3237 14.7812 22.1803 14.9107 22.0115 14.9107H20.4506C20.3676 14.9111 20.2878 14.8787 20.2286 14.8205L19.3429 13.936H11.7163L11.3914 14.2597L10.9485 14.7037V22.0309L11.7163 22.7986H19.3302L20.2159 21.9014L20.2274 21.8875C20.254 21.8748 20.2806 21.8482 20.3061 21.8355C20.3454 21.81 20.3986 21.81 20.4367 21.81H21.9976C22.1017 21.81 22.1942 21.8621 22.259 21.9395C22.2994 21.992 22.3221 22.056 22.3237 22.1222V22.5651C22.3235 22.6478 22.2907 22.7272 22.2324 22.7859L21.2565 23.7618L20.2806 24.7377C20.2679 24.7515 20.2413 24.7642 20.2286 24.777C20.2286 24.777 20.2159 24.7897 20.202 24.7897C20.1893 24.8036 20.1766 24.8036 20.1627 24.8036C20.1511 24.8036 20.1511 24.8036 20.1372 24.8163C20.1245 24.8163 20.1106 24.829 20.0979 24.829H11.0133V24.8417V24.8417ZM27.7777 28.0179C27.7772 28.1009 27.744 28.1802 27.6852 28.2388L25.7335 30.1917C25.7108 30.2133 25.6846 30.2309 25.656 30.2437C25.6078 30.2689 25.5543 30.2823 25.4999 30.283H16.4927C16.4424 30.2823 16.3931 30.2688 16.3494 30.2437C16.3145 30.2297 16.2836 30.2075 16.2592 30.179L14.3063 28.2261C14.2808 28.2006 14.2542 28.174 14.2415 28.1347C14.2276 28.1231 14.2276 28.1093 14.2276 28.0966C14.2276 28.0827 14.2161 28.07 14.2161 28.0572C14.2161 28.0445 14.2022 28.0052 14.2022 27.9786V27.5624C14.2022 27.3808 14.3456 27.2502 14.5144 27.2502H16.0753C16.1678 27.2502 16.2453 27.2895 16.2973 27.3415L17.183 28.2261H24.7969L25.1218 27.9011L25.5647 27.4583V20.1311L24.7969 19.3622H17.1957L16.3112 20.2606L16.2973 20.2734C16.2719 20.2872 16.2453 20.3127 16.2199 20.3254C16.1806 20.352 16.1285 20.352 16.0892 20.352H14.5283C14.4777 20.351 14.4281 20.3388 14.3829 20.3162C14.3377 20.2936 14.2981 20.2612 14.267 20.2213C14.2267 20.1692 14.204 20.1056 14.2022 20.0398V19.597C14.2022 19.556 14.2102 19.5153 14.2259 19.4775C14.2416 19.4396 14.2646 19.4051 14.2936 19.3761L15.2694 18.4002L16.2453 17.4232C16.2592 17.4105 16.2846 17.3978 16.2973 17.3839C16.2973 17.3839 16.3112 17.3723 16.3239 17.3723C16.3366 17.3585 16.3494 17.3585 16.3632 17.3585C16.3748 17.3585 16.3748 17.3585 16.3887 17.3457C16.4014 17.3457 16.4153 17.3319 16.428 17.3319H25.4999C25.5901 17.3319 25.6687 17.3712 25.7208 17.4244L26.6966 18.4002L27.6737 19.3761C27.6852 19.3888 27.6991 19.4016 27.7118 19.4281C27.7349 19.4643 27.7524 19.5036 27.7639 19.5449V19.6097C27.7777 19.5842 27.7777 28.0179 27.7777 28.0179Z" fill="white"/>
</g>
<path d="M50.7681 12.2266H57.3965C58.7555 12.2266 59.9233 12.43 60.8999 12.8369C61.8846 13.2438 62.6414 13.846 63.1704 14.6436C63.6994 15.4411 63.9639 16.4217 63.9639 17.5854C63.9639 18.5376 63.8011 19.3555 63.4756 20.0391C63.1582 20.7145 62.7065 21.2801 62.1206 21.7358C61.5428 22.1834 60.8633 22.5415 60.082 22.8101L58.9224 23.4204H53.1606L53.1362 20.564H57.4209C58.0638 20.564 58.5968 20.45 59.02 20.2222C59.4432 19.9943 59.7606 19.6769 59.9722 19.27C60.1919 18.8631 60.3018 18.3911 60.3018 17.854C60.3018 17.2843 60.196 16.792 59.9844 16.377C59.7728 15.9619 59.4513 15.6445 59.02 15.4248C58.5887 15.2051 58.0475 15.0952 57.3965 15.0952H54.4302V30H50.7681V12.2266ZM60.7046 30L56.6519 22.0776L60.5215 22.0532L64.623 29.8291V30H60.7046ZM72.6929 27.0215V21.1377C72.6929 20.7145 72.6237 20.3524 72.4854 20.0513C72.347 19.742 72.1313 19.502 71.8384 19.3311C71.5535 19.1602 71.1833 19.0747 70.7275 19.0747C70.3369 19.0747 69.9992 19.1439 69.7144 19.2822C69.4295 19.4124 69.2098 19.6037 69.0552 19.856C68.9006 20.1001 68.8232 20.389 68.8232 20.7227H65.3076C65.3076 20.1611 65.4378 19.6281 65.6982 19.1235C65.9587 18.619 66.3371 18.1755 66.8335 17.793C67.3299 17.4023 67.9199 17.0972 68.6035 16.8774C69.2952 16.6577 70.0684 16.5479 70.9229 16.5479C71.9482 16.5479 72.8597 16.7188 73.6572 17.0605C74.4548 17.4023 75.0814 17.915 75.5371 18.5986C76.001 19.2822 76.2329 20.1367 76.2329 21.1621V26.814C76.2329 27.5382 76.2777 28.1323 76.3672 28.5962C76.4567 29.0519 76.5869 29.4507 76.7578 29.7925V30H73.2056C73.0347 29.6419 72.9045 29.1943 72.8149 28.6572C72.7336 28.112 72.6929 27.5667 72.6929 27.0215ZM73.1567 21.9556L73.1812 23.9453H71.2158C70.752 23.9453 70.3491 23.9982 70.0073 24.104C69.6655 24.2098 69.3848 24.3604 69.165 24.5557C68.9453 24.7428 68.7826 24.9626 68.6768 25.2148C68.5791 25.4671 68.5303 25.7438 68.5303 26.0449C68.5303 26.346 68.5994 26.6187 68.7378 26.8628C68.8761 27.0988 69.0755 27.286 69.3359 27.4243C69.5964 27.5545 69.9015 27.6196 70.2515 27.6196C70.7804 27.6196 71.2402 27.5138 71.6309 27.3022C72.0215 27.0907 72.3226 26.8302 72.5342 26.521C72.7539 26.2118 72.8678 25.9188 72.876 25.6421L73.8037 27.1313C73.6735 27.465 73.4945 27.8109 73.2666 28.1689C73.0469 28.527 72.7661 28.8647 72.4243 29.1821C72.0825 29.4914 71.6715 29.7477 71.1914 29.9512C70.7113 30.1465 70.1416 30.2441 69.4824 30.2441C68.6442 30.2441 67.8833 30.0773 67.1997 29.7437C66.5243 29.4019 65.9871 28.9339 65.5884 28.3398C65.1978 27.7376 65.0024 27.054 65.0024 26.2891C65.0024 25.5973 65.1326 24.9829 65.3931 24.4458C65.6535 23.9087 66.036 23.457 66.5405 23.0908C67.0532 22.7165 67.6921 22.4357 68.457 22.2485C69.222 22.0532 70.109 21.9556 71.1182 21.9556H73.1567ZM85.0718 27.0215V21.1377C85.0718 20.7145 85.0026 20.3524 84.8643 20.0513C84.7259 19.742 84.5103 19.502 84.2173 19.3311C83.9325 19.1602 83.5622 19.0747 83.1064 19.0747C82.7158 19.0747 82.3781 19.1439 82.0933 19.2822C81.8084 19.4124 81.5887 19.6037 81.4341 19.856C81.2795 20.1001 81.2021 20.389 81.2021 20.7227H77.6865C77.6865 20.1611 77.8167 19.6281 78.0771 19.1235C78.3376 18.619 78.716 18.1755 79.2124 17.793C79.7088 17.4023 80.2988 17.0972 80.9824 16.8774C81.6742 16.6577 82.4473 16.5479 83.3018 16.5479C84.3271 16.5479 85.2386 16.7188 86.0361 17.0605C86.8337 17.4023 87.4603 17.915 87.916 18.5986C88.3799 19.2822 88.6118 20.1367 88.6118 21.1621V26.814C88.6118 27.5382 88.6566 28.1323 88.7461 28.5962C88.8356 29.0519 88.9658 29.4507 89.1367 29.7925V30H85.5845C85.4136 29.6419 85.2834 29.1943 85.1938 28.6572C85.1125 28.112 85.0718 27.5667 85.0718 27.0215ZM85.5356 21.9556L85.5601 23.9453H83.5947C83.1309 23.9453 82.728 23.9982 82.3862 24.104C82.0444 24.2098 81.7637 24.3604 81.5439 24.5557C81.3242 24.7428 81.1615 24.9626 81.0557 25.2148C80.958 25.4671 80.9092 25.7438 80.9092 26.0449C80.9092 26.346 80.9784 26.6187 81.1167 26.8628C81.255 27.0988 81.4544 27.286 81.7148 27.4243C81.9753 27.5545 82.2804 27.6196 82.6304 27.6196C83.1593 27.6196 83.6191 27.5138 84.0098 27.3022C84.4004 27.0907 84.7015 26.8302 84.9131 26.521C85.1328 26.2118 85.2467 25.9188 85.2549 25.6421L86.1826 27.1313C86.0524 27.465 85.8734 27.8109 85.6455 28.1689C85.4258 28.527 85.145 28.8647 84.8032 29.1821C84.4614 29.4914 84.0505 29.7477 83.5703 29.9512C83.0902 30.1465 82.5205 30.2441 81.8613 30.2441C81.0231 30.2441 80.2622 30.0773 79.5786 29.7437C78.9032 29.4019 78.366 28.9339 77.9673 28.3398C77.5767 27.7376 77.3813 27.054 77.3813 26.2891C77.3813 25.5973 77.5116 24.9829 77.772 24.4458C78.0324 23.9087 78.4149 23.457 78.9194 23.0908C79.4321 22.7165 80.071 22.4357 80.8359 22.2485C81.6009 22.0532 82.488 21.9556 83.4971 21.9556H85.5356ZM93.752 11.25V30H90.2363V11.25H93.752ZM93.2515 22.9321H92.2871C92.2952 22.0125 92.4173 21.1662 92.6533 20.3931C92.8893 19.6118 93.2271 18.9364 93.6665 18.3667C94.106 17.7889 94.6309 17.3413 95.2412 17.0239C95.8597 16.7065 96.5433 16.5479 97.292 16.5479C97.943 16.5479 98.533 16.6414 99.062 16.8286C99.5991 17.0076 100.059 17.3006 100.441 17.7075C100.832 18.1063 101.133 18.6312 101.345 19.2822C101.556 19.9333 101.662 20.7227 101.662 21.6504V30H98.1221V21.626C98.1221 21.04 98.0366 20.5802 97.8657 20.2466C97.703 19.9048 97.4629 19.6647 97.1455 19.5264C96.8363 19.3799 96.4538 19.3066 95.998 19.3066C95.4935 19.3066 95.0622 19.4002 94.7041 19.5874C94.3542 19.7746 94.0734 20.035 93.8618 20.3687C93.6502 20.6942 93.4956 21.0767 93.3979 21.5161C93.3003 21.9556 93.2515 22.4276 93.2515 22.9321ZM110.464 27.0215V21.1377C110.464 20.7145 110.395 20.3524 110.257 20.0513C110.118 19.742 109.903 19.502 109.61 19.3311C109.325 19.1602 108.955 19.0747 108.499 19.0747C108.108 19.0747 107.771 19.1439 107.486 19.2822C107.201 19.4124 106.981 19.6037 106.827 19.856C106.672 20.1001 106.595 20.389 106.595 20.7227H103.079C103.079 20.1611 103.209 19.6281 103.47 19.1235C103.73 18.619 104.109 18.1755 104.605 17.793C105.101 17.4023 105.691 17.0972 106.375 16.8774C107.067 16.6577 107.84 16.5479 108.694 16.5479C109.72 16.5479 110.631 16.7188 111.429 17.0605C112.226 17.4023 112.853 17.915 113.309 18.5986C113.772 19.2822 114.004 20.1367 114.004 21.1621V26.814C114.004 27.5382 114.049 28.1323 114.139 28.5962C114.228 29.0519 114.358 29.4507 114.529 29.7925V30H110.977C110.806 29.6419 110.676 29.1943 110.586 28.6572C110.505 28.112 110.464 27.5667 110.464 27.0215ZM110.928 21.9556L110.953 23.9453H108.987C108.523 23.9453 108.121 23.9982 107.779 24.104C107.437 24.2098 107.156 24.3604 106.937 24.5557C106.717 24.7428 106.554 24.9626 106.448 25.2148C106.351 25.4671 106.302 25.7438 106.302 26.0449C106.302 26.346 106.371 26.6187 106.509 26.8628C106.648 27.0988 106.847 27.286 107.107 27.4243C107.368 27.5545 107.673 27.6196 108.023 27.6196C108.552 27.6196 109.012 27.5138 109.402 27.3022C109.793 27.0907 110.094 26.8302 110.306 26.521C110.525 26.2118 110.639 25.9188 110.647 25.6421L111.575 27.1313C111.445 27.465 111.266 27.8109 111.038 28.1689C110.818 28.527 110.538 28.8647 110.196 29.1821C109.854 29.4914 109.443 29.7477 108.963 29.9512C108.483 30.1465 107.913 30.2441 107.254 30.2441C106.416 30.2441 105.655 30.0773 104.971 29.7437C104.296 29.4019 103.759 28.9339 103.36 28.3398C102.969 27.7376 102.774 27.054 102.774 26.2891C102.774 25.5973 102.904 24.9829 103.165 24.4458C103.425 23.9087 103.807 23.457 104.312 23.0908C104.825 22.7165 105.464 22.4357 106.229 22.2485C106.993 22.0532 107.881 21.9556 108.89 21.9556H110.928ZM122.184 16.792V19.2822H114.494V16.792H122.184ZM116.398 13.5327H119.914V26.0205C119.914 26.403 119.962 26.696 120.06 26.8994C120.166 27.1029 120.32 27.2453 120.524 27.3267C120.727 27.3999 120.984 27.4365 121.293 27.4365C121.513 27.4365 121.708 27.4284 121.879 27.4121C122.058 27.3877 122.208 27.3633 122.331 27.3389L122.343 29.9268C122.042 30.0244 121.716 30.1017 121.366 30.1587C121.016 30.2157 120.63 30.2441 120.207 30.2441C119.433 30.2441 118.758 30.118 118.18 29.8657C117.611 29.6053 117.171 29.1903 116.862 28.6206C116.553 28.0509 116.398 27.3022 116.398 26.3745V13.5327Z" fill="#052959"/>
<defs>
<clipPath id="clip0_502_5">
<rect width="37" height="37" fill="white" transform="translate(0 2)"/>
</clipPath>
</defs>
</svg>
